<svg width="72" height="73" viewBox="0 0 72 73" fill="none" xmlns="http://www.w3.org/2000/svg">
<g clip-path="url(#clip0_460_32)">
<g filter="url(#filter0_i_460_32)">
<ellipse cx="17.5603" cy="56.6588" rx="16.5603" ry="8.91708" fill="#0C7878"/>
</g>
<path d="M17.5603 66.5277C22.2593 66.5277 26.5606 65.5042 29.7214 63.8022C32.8435 62.1211 35.0724 59.6391 35.0724 56.6588C35.0724 53.6785 32.8435 51.1966 29.7214 49.5155C26.5606 47.8135 22.2593 46.79 17.5603 46.79C12.8613 46.79 8.56 47.8135 5.39915 49.5155C2.27708 51.1966 0.0482035 53.6785 0.0482035 56.6588C0.0482035 59.6391 2.27708 62.1211 5.39915 63.8022C8.56 65.5042 12.8613 66.5277 17.5603 66.5277Z" stroke="white" stroke-width="1.90359"/>
<g filter="url(#filter1_i_460_32)">
<ellipse cx="17.5603" cy="49.0157" rx="16.5603" ry="8.91708" fill="#0C7878"/>
</g>
<path d="M17.5603 58.8845C22.2593 58.8845 26.5606 57.861 29.7214 56.159C32.8435 54.4779 35.0724 51.996 35.0724 49.0157C35.0724 46.0353 32.8435 43.5534 29.7214 41.8723C26.5606 40.1703 22.2593 39.1468 17.5603 39.1468C12.8613 39.1468 8.56 40.1703 5.39915 41.8723C2.27708 43.5534 0.0482035 46.0353 0.0482035 49.0157C0.0482035 51.996 2.27708 54.4779 5.39915 56.159C8.56 57.861 12.8613 58.8845 17.5603 58.8845Z" stroke="white" stroke-width="1.90359"/>
<g filter="url(#filter2_i_460_32)">
<ellipse cx="17.5603" cy="39.8437" rx="16.5603" ry="8.91708" fill="#0C7878"/>
</g>
<path d="M17.5603 49.7126C22.2593 49.7126 26.5606 48.6891 29.7214 46.9871C32.8435 45.306 35.0724 42.824 35.0724 39.8437C35.0724 36.8634 32.8435 34.3815 29.7214 32.7004C26.5606 30.9984 22.2593 29.9748 17.5603 29.9748C12.8613 29.9748 8.56 30.9984 5.39915 32.7004C2.27708 34.3815 0.0482035 36.8634 0.0482035 39.8437C0.0482035 42.824 2.27708 45.306 5.39915 46.9871C8.56 48.6891 12.8613 49.7126 17.5603 49.7126Z" stroke="white" stroke-width="1.90359"/>
<g filter="url(#filter3_i_460_32)">
<ellipse cx="17.5603" cy="30.6719" rx="16.5603" ry="8.91708" fill="#0C7878"/>
</g>
<path d="M17.5603 40.5408C22.2593 40.5408 26.5606 39.5173 29.7214 37.8153C32.8435 36.1341 35.0724 33.6522 35.0724 30.6719C35.0724 27.6916 32.8435 25.2097 29.7214 23.5285C26.5606 21.8266 22.2593 20.803 17.5603 20.803C12.8613 20.803 8.56 21.8266 5.39915 23.5285C2.27708 25.2097 0.0482035 27.6916 0.0482035 30.6719C0.0482035 33.6522 2.27708 36.1341 5.39915 37.8153C8.56 39.5173 12.8613 40.5408 17.5603 40.5408Z" stroke="white" stroke-width="1.90359"/>
<g filter="url(#filter4_i_460_32)">
<circle cx="38.1969" cy="56.4041" r="15.796" fill="#EE2B5B"/>
</g>
<circle cx="38.1969" cy="56.4041" r="14.3683" stroke="#FF8BA7" stroke-width="2.85539"/>
<path d="M38.3726 64.6371L36.5254 59.0538L30.6445 59.0853L35.3837 55.6032L33.5364 50.0199L38.3127 53.4511L43.0519 49.9689L41.2646 55.5717L46.0408 59.0028L40.1599 59.0344L38.3726 64.6371Z" fill="#1CDBDA"/>
<path d="M46.4357 4.6225L57.6068 11.0721V23.9714L46.4357 30.421L35.2646 23.9714V11.0721L46.4357 4.6225Z" fill="#1CDBDA"/>
<path d="M46.4357 17.9476L35.2646 11.0543V23.918L46.4357 30.3499V17.9476Z" fill="#0C7878"/>
<path d="M46.372 18.1784L57.5431 11.285V24.1487L46.372 30.5806V18.1784Z" fill="#0CAFAF"/>
<path d="M23.5672 1.76709L30.9057 6.00396V14.4777L23.5672 18.7146L16.2288 14.4777V6.00396L23.5672 1.76709Z" fill="#1CDBDA"/>
<path d="M23.6762 18.693L16.2288 14.6163V6.16779L23.6762 10.3332V18.693Z" fill="#0C7878"/>
<path d="M23.5289 18.693L30.9763 14.6163V6.16779L23.5289 10.3332V18.693Z" fill="#0CAFAF"/>
<path d="M62.5909 26.5138L69.9294 30.7507V39.2244L62.5909 43.4613L55.2524 39.2244V30.7507L62.5909 26.5138Z" fill="#1CDBDA"/>
<path d="M62.6998 43.4397L55.2524 39.3631V30.9146L62.6998 35.08V43.4397Z" fill="#0C7878"/>
<path d="M62.5526 43.4397L70 39.3631V30.9146L62.5526 35.08V43.4397Z" fill="#0CAFAF"/>
</g>
<defs>
<filter id="filter0_i_460_32" x="-0.903564" y="45.0768" width="36.9277" height="22.4027" filterUnits="userSpaceOnUse" color-interpolation-filters="sRGB">
<feFlood flood-opacity="0" result="BackgroundImageFix"/>
<feBlend mode="normal" in="SourceGraphic" in2="BackgroundImageFix" result="shape"/>
<feColorMatrix in="SourceAlpha" type="matrix" values="0 0 0 0 0 0 0 0 0 0 0 0 0 0 0 0 0 0 127 0" result="hardAlpha"/>
<feOffset dy="-2.85539"/>
<feGaussianBlur stdDeviation="0.380719"/>
<feComposite in2="hardAlpha" operator="arithmetic" k2="-1" k3="1"/>
<feColorMatrix type="matrix" values="0 0 0 0 0.0201504 0 0 0 0 0.198372 0 0 0 0 0.194129 0 0 0 0.2 0"/>
<feBlend mode="normal" in2="shape" result="effect1_innerShadow_460_32"/>
</filter>
<filter id="filter1_i_460_32" x="-0.903564" y="37.4336" width="36.9277" height="22.4027" filterUnits="userSpaceOnUse" color-interpolation-filters="sRGB">
<feFlood flood-opacity="0" result="BackgroundImageFix"/>
<feBlend mode="normal" in="SourceGraphic" in2="BackgroundImageFix" result="shape"/>
<feColorMatrix in="SourceAlpha" type="matrix" values="0 0 0 0 0 0 0 0 0 0 0 0 0 0 0 0 0 0 127 0" result="hardAlpha"/>
<feOffset dy="-2.85539"/>
<feGaussianBlur stdDeviation="0.380719"/>
<feComposite in2="hardAlpha" operator="arithmetic" k2="-1" k3="1"/>
<feColorMatrix type="matrix" values="0 0 0 0 0.0201504 0 0 0 0 0.198372 0 0 0 0 0.194129 0 0 0 0.2 0"/>
<feBlend mode="normal" in2="shape" result="effect1_innerShadow_460_32"/>
</filter>
<filter id="filter2_i_460_32" x="-0.903564" y="28.2616" width="36.9277" height="22.4027" filterUnits="userSpaceOnUse" color-interpolation-filters="sRGB">
<feFlood flood-opacity="0" result="BackgroundImageFix"/>
<feBlend mode="normal" in="SourceGraphic" in2="BackgroundImageFix" result="shape"/>
<feColorMatrix in="SourceAlpha" type="matrix" values="0 0 0 0 0 0 0 0 0 0 0 0 0 0 0 0 0 0 127 0" result="hardAlpha"/>
<feOffset dy="-2.85539"/>
<feGaussianBlur stdDeviation="0.380719"/>
<feComposite in2="hardAlpha" operator="arithmetic" k2="-1" k3="1"/>
<feColorMatrix type="matrix" values="0 0 0 0 0.0201504 0 0 0 0 0.198372 0 0 0 0 0.194129 0 0 0 0.2 0"/>
<feBlend mode="normal" in2="shape" result="effect1_innerShadow_460_32"/>
</filter>
<filter id="filter3_i_460_32" x="-0.903564" y="19.0898" width="36.9277" height="22.4027" filterUnits="userSpaceOnUse" color-interpolation-filters="sRGB">
<feFlood flood-opacity="0" result="BackgroundImageFix"/>
<feBlend mode="normal" in="SourceGraphic" in2="BackgroundImageFix" result="shape"/>
<feColorMatrix in="SourceAlpha" type="matrix" values="0 0 0 0 0 0 0 0 0 0 0 0 0 0 0 0 0 0 127 0" result="hardAlpha"/>
<feOffset dy="-2.85539"/>
<feGaussianBlur stdDeviation="0.380719"/>
<feComposite in2="hardAlpha" operator="arithmetic" k2="-1" k3="1"/>
<feColorMatrix type="matrix" values="0 0 0 0 0.0201504 0 0 0 0 0.198372 0 0 0 0 0.194129 0 0 0 0.2 0"/>
<feBlend mode="normal" in2="shape" result="effect1_innerShadow_460_32"/>
</filter>
<filter id="filter4_i_460_32" x="22.4009" y="40.6081" width="31.5919" height="31.592" filterUnits="userSpaceOnUse" color-interpolation-filters="sRGB">
<feFlood flood-opacity="0" result="BackgroundImageFix"/>
<feBlend mode="normal" in="SourceGraphic" in2="BackgroundImageFix" result="shape"/>
<feColorMatrix in="SourceAlpha" type="matrix" values="0 0 0 0 0 0 0 0 0 0 0 0 0 0 0 0 0 0 127 0" result="hardAlpha"/>
<feOffset dx="3.80719" dy="3.80719"/>
<feComposite in2="hardAlpha" operator="arithmetic" k2="-1" k3="1"/>
<feColorMatrix type="matrix" values="0 0 0 0 0.69012 0 0 0 0 0.0371344 0 0 0 0 0.134388 0 0 0 1 0"/>
<feBlend mode="normal" in2="shape" result="effect1_innerShadow_460_32"/>
</filter>
<clipPath id="clip0_460_32">
<rect width="72" height="72" fill="white" transform="translate(0 0.76709)"/>
</clipPath>
</defs>
</svg>
