<svg width="72" height="73" viewBox="0 0 72 73" fill="none" xmlns="http://www.w3.org/2000/svg">
<g clip-path="url(#clip0_460_2)">
<circle cx="21.0649" cy="20.0872" r="18.3201" fill="#B00922"/>
<g filter="url(#filter0_i_460_2)">
<circle cx="19.3701" cy="20.1372" r="18.3701" fill="#EE2B5B"/>
<path fill-rule="evenodd" clip-rule="evenodd" d="M18.9468 12.8174V14.788H20.2207V12.8174L21.4948 12.8174V14.8422C22.4475 14.95 23.2073 15.2186 23.7741 15.648C24.5309 16.2099 24.9093 16.9667 24.9093 17.9184C24.9093 18.5605 24.7602 19.1109 24.4621 19.5696C24.1822 19.9893 23.8115 20.3232 23.3498 20.5712C23.4957 20.619 23.6371 20.675 23.7741 20.7391C24.313 20.9799 24.7373 21.3354 25.0469 21.8055C25.3679 22.2757 25.5285 22.8605 25.5285 23.5599C25.5285 24.5919 25.1329 25.3946 24.3417 25.9679C23.6698 26.4548 22.7208 26.7349 21.4948 26.8083V27.9387H20.2207V26.8279H18.9468V27.9387H17.6727V26.8279H14.8302V26.5025H13.2134V24.5914H14.8302V16.305H13.0862V14.4577H14.9336V14.788H17.6727V12.8174L18.9468 12.8174ZM17.0662 25.0735H20.6781C21.5152 25.0735 22.1573 24.9359 22.6045 24.6607C23.0517 24.3855 23.2753 23.944 23.2753 23.3363C23.2753 22.7401 23.0517 22.3043 22.6045 22.0291C22.1573 21.7425 21.5152 21.5991 20.6781 21.5991H17.0662V25.0735ZM17.0662 16.5424V19.862H20.2309C21.0107 19.862 21.6069 19.7244 22.0197 19.4492C22.444 19.174 22.6561 18.7612 22.6561 18.2108C22.6561 17.6489 22.444 17.2304 22.0197 16.9552C21.6069 16.68 21.0107 16.5424 20.2309 16.5424H17.0662Z" fill="#FF8BA7"/>
</g>
<circle cx="19.3701" cy="20.1372" r="16.6371" stroke="#FF8BA7" stroke-width="3.46606"/>
<g filter="url(#filter1_d_460_2)">
<circle cx="41.7727" cy="43.4359" r="28.2273" fill="#127876"/>
<g filter="url(#filter2_i_460_2)">
<circle cx="39.1615" cy="43.5129" r="28.3043" fill="#0C7878"/>
<g style="mix-blend-mode:overlay">
<path fill-rule="evenodd" clip-rule="evenodd" d="M38.509 32.2346V34.537H40.4719V32.2346L42.4349 32.2346V34.6205C43.9029 34.7866 45.0736 35.2004 45.947 35.862C47.113 36.7277 47.696 37.8938 47.696 39.3602C47.696 40.3495 47.4664 41.1976 47.007 41.9043C46.5758 42.551 46.0046 43.0655 45.2932 43.4476C45.518 43.5213 45.7359 43.6075 45.947 43.7063C46.7773 44.0774 47.431 44.6251 47.908 45.3494C48.4027 46.0738 48.6501 46.9748 48.6501 48.0525C48.6501 49.6426 48.0405 50.8793 46.8215 51.7627C45.7862 52.5129 44.324 52.9445 42.4349 53.0576V55.5333H40.4719V53.0877H38.509V55.5333H36.546V53.0877H32.1664V53.0564H29.8209V50.1119H32.1664V37.3392H29.6753V34.4928H32.5217V34.537H36.546V32.2346L38.509 32.2346ZM35.6115 50.3846H41.1768C42.4665 50.3846 43.4559 50.1726 44.1449 49.7486C44.8339 49.3246 45.1784 48.6444 45.1784 47.708C45.1784 46.7893 44.8339 46.1179 44.1449 45.6939C43.4559 45.2522 42.4665 45.0314 41.1768 45.0314H35.6115V50.3846ZM35.6115 37.2401V42.3548H40.4877C41.6891 42.3548 42.6078 42.1428 43.2438 41.7188C43.8975 41.2948 44.2244 40.6587 44.2244 39.8107C44.2244 38.945 43.8975 38.3001 43.2438 37.8761C42.6078 37.4521 41.6891 37.2401 40.4877 37.2401H35.6115Z" fill="#1CDBDA"/>
</g>
</g>
<circle cx="39.1615" cy="43.5129" r="25.6341" stroke="#1CDBDA" stroke-width="5.34043"/>
</g>
</g>
<defs>
<filter id="filter0_i_460_2" x="1" y="1.76709" width="36.7402" height="36.7402" filterUnits="userSpaceOnUse" color-interpolation-filters="sRGB">
<feFlood flood-opacity="0" result="BackgroundImageFix"/>
<feBlend mode="normal" in="SourceGraphic" in2="BackgroundImageFix" result="shape"/>
<feColorMatrix in="SourceAlpha" type="matrix" values="0 0 0 0 0 0 0 0 0 0 0 0 0 0 0 0 0 0 127 0" result="hardAlpha"/>
<feOffset dx="4.65274" dy="2.32637"/>
<feComposite in2="hardAlpha" operator="arithmetic" k2="-1" k3="1"/>
<feColorMatrix type="matrix" values="0 0 0 0 0.388235 0 0 0 0 0.0196078 0 0 0 0 0.0745098 0 0 0 1 0"/>
<feBlend mode="normal" in2="shape" result="effect1_innerShadow_460_2"/>
</filter>
<filter id="filter1_d_460_2" x="6.19744" y="10.5489" width="66.6701" height="64.1359" filterUnits="userSpaceOnUse" color-interpolation-filters="sRGB">
<feFlood flood-opacity="0" result="BackgroundImageFix"/>
<feColorMatrix in="SourceAlpha" type="matrix" values="0 0 0 0 0 0 0 0 0 0 0 0 0 0 0 0 0 0 127 0" result="hardAlpha"/>
<feOffset dx="-0.896104" dy="-0.896104"/>
<feGaussianBlur stdDeviation="1.88182"/>
<feComposite in2="hardAlpha" operator="out"/>
<feColorMatrix type="matrix" values="0 0 0 0 0.0456138 0 0 0 0 0.472201 0 0 0 0 0.469967 0 0 0 0.2 0"/>
<feBlend mode="normal" in2="BackgroundImageFix" result="effect1_dropShadow_460_2"/>
<feBlend mode="normal" in="SourceGraphic" in2="effect1_dropShadow_460_2" result="shape"/>
</filter>
<filter id="filter2_i_460_2" x="10.8572" y="15.2086" width="56.6085" height="56.6086" filterUnits="userSpaceOnUse" color-interpolation-filters="sRGB">
<feFlood flood-opacity="0" result="BackgroundImageFix"/>
<feBlend mode="normal" in="SourceGraphic" in2="BackgroundImageFix" result="shape"/>
<feColorMatrix in="SourceAlpha" type="matrix" values="0 0 0 0 0 0 0 0 0 0 0 0 0 0 0 0 0 0 127 0" result="hardAlpha"/>
<feOffset dx="7.16883" dy="3.58441"/>
<feComposite in2="hardAlpha" operator="arithmetic" k2="-1" k3="1"/>
<feColorMatrix type="matrix" values="0 0 0 0 0.0636291 0 0 0 0 0.308626 0 0 0 0 0.307344 0 0 0 1 0"/>
<feBlend mode="normal" in2="shape" result="effect1_innerShadow_460_2"/>
</filter>
<clipPath id="clip0_460_2">
<rect width="72" height="72" fill="white" transform="translate(0 0.76709)"/>
</clipPath>
</defs>
</svg>
