<svg width="72" height="73" viewBox="0 0 72 73" fill="none" xmlns="http://www.w3.org/2000/svg">
<g clip-path="url(#clip0_460_50)">
<g filter="url(#filter0_i_460_50)">
<path d="M13.0005 1.24165C11.735 0.608903 10.2454 0.608903 8.97994 1.24165L2 4.73162V14.7557C2 17.4678 5.19952 20.5534 10.9902 24.2104C16.7809 20.5534 19.9804 18.2169 19.9804 14.7557C19.9804 11.2945 19.9804 4.73162 19.9804 4.73162L13.0005 1.24165Z" fill="#EE2B5B"/>
</g>
<path d="M9.5989 14.364L10.241 15.0061L10.8832 14.364L15.3783 9.86885L14.094 8.5846L10.241 12.4376L8.6356 10.8322L7.35135 12.1164L9.5989 14.364ZM2.9081 5.29286L9.38605 2.05388C10.3959 1.54896 11.5845 1.54896 12.5944 2.05388L19.0723 5.29286V5.29931V5.31125V5.32329V5.33545V5.34771V5.36009V5.37257V5.38517V5.39787V5.41067V5.42359V5.43661V5.44974V5.46297V5.47631V5.48975V5.5033V5.51695V5.5307V5.54456V5.55852V5.57259V5.58675V5.60102V5.61538V5.62985V5.64442V5.65909V5.67385V5.68872V5.70368V5.71874V5.7339V5.74916V5.76451V5.77996V5.79551V5.81115V5.82688V5.84271V5.85864V5.87465V5.89076V5.90697V5.92326V5.93965V5.95613V5.9727V5.98936V6.00611V6.02295V6.03988V6.0569V6.07401V6.0912V6.10849V6.12585V6.14331V6.16085V6.17848V6.1962V6.214V6.23188V6.24985V6.2679V6.28603V6.30425V6.32255V6.34093V6.35939V6.37794V6.39656V6.41527V6.43405V6.45292V6.47186V6.49088V6.50998V6.52916V6.54842V6.56775V6.58715V6.60664V6.6262V6.64583V6.66554V6.68532V6.70518V6.72511V6.74511V6.76519V6.78534V6.80555V6.82584V6.8462V6.86664V6.88714V6.90771V6.92835V6.94905V6.96983V6.99067V7.01158V7.03256V7.05361V7.07472V7.09589V7.11713V7.13844V7.15981V7.18124V7.20274V7.2243V7.24592V7.26761V7.28935V7.31116V7.33303V7.35496V7.37694V7.39899V7.4211V7.44326V7.46549V7.48777V7.51011V7.5325V7.55495V7.57746V7.60003V7.62265V7.64532V7.66805V7.69083V7.71366V7.73655V7.75949V7.78249V7.80553V7.82863V7.85177V7.87497V7.89822V7.92151V7.94486V7.96825V7.9917V8.01519V8.03872V8.06231V8.08594V8.10962V8.13334V8.15711V8.18092V8.20478V8.22868V8.25263V8.27662V8.30065V8.32472V8.34883V8.37299V8.39719V8.42142V8.4457V8.47002V8.49437V8.51877V8.5432V8.56767V8.59218V8.61673V8.64131V8.66593V8.69058V8.71527V8.74V8.76475V8.78955V8.81437V8.83923V8.86413V8.88905V8.91401V8.93899V8.96401V8.98906V9.01414V9.03925V9.06439V9.08955V9.11475V9.13997V9.16522V9.1905V9.2158V9.24114V9.26649V9.29187V9.31728V9.34271V9.36817V9.39365V9.41915V9.44467V9.47022V9.49579V9.52138V9.54699V9.57262V9.59828V9.62395V9.64964V9.67535V9.70108V9.72682V9.75259V9.77837V9.80417V9.82998V9.85581V9.88166V9.90752V9.93339V9.95928V9.98519V10.0111V10.037V10.063V10.0889V10.1149V10.1409V10.1669V10.1929V10.2189V10.2449V10.2709V10.2969V10.323V10.349V10.3751V10.4011V10.4272V10.4533V10.4794V10.5055V10.5315V10.5576V10.5837V10.6098V10.6359V10.6621V10.6882V10.7143V10.7404V10.7665V10.7926V10.8187V10.8448V10.8709V10.8971V10.9232V10.9493V10.9754V11.0015V11.0276V11.0537V11.0798V11.1058V11.1319V11.158V11.1841V11.2101V11.2362V11.2622V11.2882V11.3143V11.3403V11.3663V11.3923V11.4183V11.4443V11.4702V11.4962V11.5221V11.5481V11.574V11.5999V11.6258V11.6517V11.6775V11.7034V11.7292V11.7551V11.7809V11.8066V11.8324V11.8582V11.8839V11.9096V11.9353V11.961V11.9867V12.0123V12.0379V12.0635V12.0891V12.1147V12.1402V12.1657V12.1912V12.2166V12.2421V12.2675V12.2929V12.3183V12.3436V12.3689V12.3942V12.4195V12.4447V12.4699V12.4951V12.5202V12.5453V12.5704V12.5955V12.6205V12.6455V12.6705V12.6954V12.7203V12.7452V12.77V12.7948V12.8196V12.8444V12.8691V12.8937V12.9184V12.943V12.9675V12.992V13.0165V13.041V13.0654V13.0897V13.1141V13.1384V13.1626V13.1868V13.211V13.2351V13.2592V13.2833V13.3073V13.3312V13.3551V13.379V13.4029V13.4266V13.4504V13.4741V13.4977V13.5213V13.5449V13.5684V13.5918V13.6153V13.6386V13.6619V13.6852V13.7084V13.7316V13.7547V13.7778V13.8008V13.8237V13.8466V13.8695V13.8923V13.915V13.9377V13.9604V13.983V14.0055V14.028V14.0504V14.0727V14.095V14.1173V14.1395V14.1616V14.1837V14.2057V14.2276V14.2495V14.2713V14.2931V14.3148V14.3365V14.3581V14.3796V14.401V14.4224V14.4438V14.465V14.4862V14.5074V14.5284V14.5494V14.5704V14.5912V14.612V14.6328V14.6534V14.674V14.6945V14.715V14.7354V14.7557C19.0723 16.1537 18.4461 17.3828 17.0255 18.7569C15.6618 20.0761 13.656 21.4422 10.9916 23.1347C8.35731 21.4424 6.34247 19.9028 4.97476 18.4957C3.50596 16.9847 2.9081 15.7544 2.9081 14.7557V5.29286Z" stroke="#FF8BA7" stroke-width="1.8162"/>
<g filter="url(#filter1_i_460_50)">
<rect x="2.17578" y="55.081" width="20.1753" height="16.8127" rx="1.68127" fill="#1CDBDA"/>
</g>
<g filter="url(#filter2_i_460_50)">
<path d="M6.37927 33.3663C6.37927 32.4378 7.132 31.6851 8.06054 31.6851H14.7856C15.7142 31.6851 16.4669 32.4378 16.4669 33.3663V36.5869C16.4669 37.5154 15.7142 38.2681 14.7856 38.2681H8.06054C7.132 38.2681 6.37927 37.5154 6.37927 36.5868V33.3663Z" fill="#0C7878"/>
</g>
<g filter="url(#filter3_i_460_50)">
<path d="M18.149 33.3662C18.149 32.4377 18.9018 31.685 19.8303 31.685H26.5554C27.484 31.685 28.2367 32.4377 28.2367 33.3662V36.5868C28.2367 37.5153 27.4839 38.268 26.5554 38.268H19.8303C18.9018 38.268 18.149 37.5153 18.149 36.5868V33.3662Z" fill="#0C7878"/>
</g>
<g filter="url(#filter4_i_460_50)">
<path d="M29.9172 33.3662C29.9172 32.4377 30.67 31.685 31.5985 31.685H38.3236C39.2521 31.685 40.0049 32.4377 40.0049 33.3662V36.5868C40.0049 37.5153 39.2521 38.268 38.3236 38.268H31.5985C30.67 38.268 29.9172 37.5153 29.9172 36.5868V33.3662Z" fill="#0C7878"/>
</g>
<g filter="url(#filter5_i_460_50)">
<rect x="2.17578" y="36.587" width="42.0318" height="16.8127" rx="1.68127" fill="#1CDBDA"/>
</g>
<g filter="url(#filter6_i_460_50)">
<path d="M46.3632 6.48498C47.0197 5.8284 48.0843 5.8284 48.7408 6.48498L53.4962 11.2403C54.1528 11.8969 54.1528 12.9614 53.4962 13.618L51.0746 16.0396C50.418 16.6962 49.3535 16.6962 48.6969 16.0396L43.9416 11.2843C43.285 10.6277 43.285 9.56317 43.9416 8.90659L46.3632 6.48498Z" fill="#0C7878"/>
</g>
<g filter="url(#filter7_i_460_50)">
<path d="M54.6854 14.8068C55.342 14.1502 56.4065 14.1502 57.0631 14.8068L61.8185 19.5621C62.475 20.2187 62.475 21.2832 61.8185 21.9398L59.3969 24.3614C58.7403 25.018 57.6758 25.018 57.0192 24.3614L52.2638 19.6061C51.6072 18.9495 51.6072 17.885 52.2638 17.2284L54.6854 14.8068Z" fill="#0C7878"/>
</g>
<g filter="url(#filter8_i_460_50)">
<path d="M63.0071 23.1286C63.6637 22.472 64.7282 22.4721 65.3848 23.1286L70.1401 27.884C70.7967 28.5406 70.7967 29.6051 70.1401 30.2617L67.7185 32.6833C67.0619 33.3398 65.9974 33.3398 65.3408 32.6833L60.5855 27.9279C59.9289 27.2713 59.9289 26.2068 60.5855 25.5502L63.0071 23.1286Z" fill="#0C7878"/>
</g>
<g filter="url(#filter9_i_460_50)">
<rect x="40.9684" y="5.93436" width="42.0318" height="16.8127" rx="1.68127" transform="rotate(45 40.9684 5.93436)" fill="#1CDBDA"/>
</g>
<g filter="url(#filter10_i_460_50)">
<path d="M53.5544 52.3538C53.5544 51.4252 54.3072 50.6725 55.2357 50.6725H61.9253C62.8538 50.6725 63.6066 51.4252 63.6066 52.3538V55.6926C63.6066 56.6212 62.8538 57.3739 61.9253 57.3739H55.2357C54.3072 57.3739 53.5544 56.6212 53.5544 55.6926V52.3538Z" fill="#0C7878"/>
</g>
<g filter="url(#filter11_i_460_50)">
<rect x="24.0325" y="55.081" width="42.8724" height="16.8127" rx="1.68127" fill="#1CDBDA"/>
</g>
<rect x="5.90234" y="7.12378" width="9.98913" height="8.17292" fill="#EE2B5B"/>
<path d="M7.71826 12.1183L9.98852 14.3886L14.9831 9.84808" stroke="#1CDBDA" stroke-width="1.8162"/>
</g>
<defs>
<filter id="filter0_i_460_50" x="2" y="0.76709" width="17.9805" height="23.4433" filterUnits="userSpaceOnUse" color-interpolation-filters="sRGB">
<feFlood flood-opacity="0" result="BackgroundImageFix"/>
<feBlend mode="normal" in="SourceGraphic" in2="BackgroundImageFix" result="shape"/>
<feColorMatrix in="SourceAlpha" type="matrix" values="0 0 0 0 0 0 0 0 0 0 0 0 0 0 0 0 0 0 127 0" result="hardAlpha"/>
<feOffset dx="1.67508" dy="3.35016"/>
<feComposite in2="hardAlpha" operator="arithmetic" k2="-1" k3="1"/>
<feColorMatrix type="matrix" values="0 0 0 0 0.69012 0 0 0 0 0.0371344 0 0 0 0 0.134388 0 0 0 1 0"/>
<feBlend mode="normal" in2="shape" result="effect1_innerShadow_460_50"/>
</filter>
<filter id="filter1_i_460_50" x="2.17578" y="54.3545" width="20.1753" height="17.5392" filterUnits="userSpaceOnUse" color-interpolation-filters="sRGB">
<feFlood flood-opacity="0" result="BackgroundImageFix"/>
<feBlend mode="normal" in="SourceGraphic" in2="BackgroundImageFix" result="shape"/>
<feColorMatrix in="SourceAlpha" type="matrix" values="0 0 0 0 0 0 0 0 0 0 0 0 0 0 0 0 0 0 127 0" result="hardAlpha"/>
<feOffset dy="-1.8162"/>
<feGaussianBlur stdDeviation="0.363241"/>
<feComposite in2="hardAlpha" operator="arithmetic" k2="-1" k3="1"/>
<feColorMatrix type="matrix" values="0 0 0 0 0.0689561 0 0 0 0 0.470426 0 0 0 0 0.460868 0 0 0 0.2 0"/>
<feBlend mode="normal" in2="shape" result="effect1_innerShadow_460_50"/>
</filter>
<filter id="filter2_i_460_50" x="6.37927" y="30.9586" width="10.0876" height="7.30955" filterUnits="userSpaceOnUse" color-interpolation-filters="sRGB">
<feFlood flood-opacity="0" result="BackgroundImageFix"/>
<feBlend mode="normal" in="SourceGraphic" in2="BackgroundImageFix" result="shape"/>
<feColorMatrix in="SourceAlpha" type="matrix" values="0 0 0 0 0 0 0 0 0 0 0 0 0 0 0 0 0 0 127 0" result="hardAlpha"/>
<feOffset dy="-2.72431"/>
<feGaussianBlur stdDeviation="0.363241"/>
<feComposite in2="hardAlpha" operator="arithmetic" k2="-1" k3="1"/>
<feColorMatrix type="matrix" values="0 0 0 0 0.0201504 0 0 0 0 0.198372 0 0 0 0 0.194129 0 0 0 0.2 0"/>
<feBlend mode="normal" in2="shape" result="effect1_innerShadow_460_50"/>
</filter>
<filter id="filter3_i_460_50" x="18.149" y="30.9585" width="10.0876" height="7.30955" filterUnits="userSpaceOnUse" color-interpolation-filters="sRGB">
<feFlood flood-opacity="0" result="BackgroundImageFix"/>
<feBlend mode="normal" in="SourceGraphic" in2="BackgroundImageFix" result="shape"/>
<feColorMatrix in="SourceAlpha" type="matrix" values="0 0 0 0 0 0 0 0 0 0 0 0 0 0 0 0 0 0 127 0" result="hardAlpha"/>
<feOffset dy="-2.72431"/>
<feGaussianBlur stdDeviation="0.363241"/>
<feComposite in2="hardAlpha" operator="arithmetic" k2="-1" k3="1"/>
<feColorMatrix type="matrix" values="0 0 0 0 0.0201504 0 0 0 0 0.198372 0 0 0 0 0.194129 0 0 0 0.2 0"/>
<feBlend mode="normal" in2="shape" result="effect1_innerShadow_460_50"/>
</filter>
<filter id="filter4_i_460_50" x="29.9172" y="30.9585" width="10.0876" height="7.30955" filterUnits="userSpaceOnUse" color-interpolation-filters="sRGB">
<feFlood flood-opacity="0" result="BackgroundImageFix"/>
<feBlend mode="normal" in="SourceGraphic" in2="BackgroundImageFix" result="shape"/>
<feColorMatrix in="SourceAlpha" type="matrix" values="0 0 0 0 0 0 0 0 0 0 0 0 0 0 0 0 0 0 127 0" result="hardAlpha"/>
<feOffset dy="-2.72431"/>
<feGaussianBlur stdDeviation="0.363241"/>
<feComposite in2="hardAlpha" operator="arithmetic" k2="-1" k3="1"/>
<feColorMatrix type="matrix" values="0 0 0 0 0.0201504 0 0 0 0 0.198372 0 0 0 0 0.194129 0 0 0 0.2 0"/>
<feBlend mode="normal" in2="shape" result="effect1_innerShadow_460_50"/>
</filter>
<filter id="filter5_i_460_50" x="2.17578" y="35.8605" width="42.0319" height="17.5392" filterUnits="userSpaceOnUse" color-interpolation-filters="sRGB">
<feFlood flood-opacity="0" result="BackgroundImageFix"/>
<feBlend mode="normal" in="SourceGraphic" in2="BackgroundImageFix" result="shape"/>
<feColorMatrix in="SourceAlpha" type="matrix" values="0 0 0 0 0 0 0 0 0 0 0 0 0 0 0 0 0 0 127 0" result="hardAlpha"/>
<feOffset dy="-1.8162"/>
<feGaussianBlur stdDeviation="0.363241"/>
<feComposite in2="hardAlpha" operator="arithmetic" k2="-1" k3="1"/>
<feColorMatrix type="matrix" values="0 0 0 0 0.0689561 0 0 0 0 0.470426 0 0 0 0 0.460868 0 0 0 0.2 0"/>
<feBlend mode="normal" in2="shape" result="effect1_innerShadow_460_50"/>
</filter>
<filter id="filter6_i_460_50" x="43.4491" y="5.26607" width="10.5396" height="11.266" filterUnits="userSpaceOnUse" color-interpolation-filters="sRGB">
<feFlood flood-opacity="0" result="BackgroundImageFix"/>
<feBlend mode="normal" in="SourceGraphic" in2="BackgroundImageFix" result="shape"/>
<feColorMatrix in="SourceAlpha" type="matrix" values="0 0 0 0 0 0 0 0 0 0 0 0 0 0 0 0 0 0 127 0" result="hardAlpha"/>
<feOffset dy="-2.72431"/>
<feGaussianBlur stdDeviation="0.363241"/>
<feComposite in2="hardAlpha" operator="arithmetic" k2="-1" k3="1"/>
<feColorMatrix type="matrix" values="0 0 0 0 0.0201504 0 0 0 0 0.198372 0 0 0 0 0.194129 0 0 0 0.2 0"/>
<feBlend mode="normal" in2="shape" result="effect1_innerShadow_460_50"/>
</filter>
<filter id="filter7_i_460_50" x="51.7714" y="13.5879" width="10.5396" height="11.266" filterUnits="userSpaceOnUse" color-interpolation-filters="sRGB">
<feFlood flood-opacity="0" result="BackgroundImageFix"/>
<feBlend mode="normal" in="SourceGraphic" in2="BackgroundImageFix" result="shape"/>
<feColorMatrix in="SourceAlpha" type="matrix" values="0 0 0 0 0 0 0 0 0 0 0 0 0 0 0 0 0 0 127 0" result="hardAlpha"/>
<feOffset dy="-2.72431"/>
<feGaussianBlur stdDeviation="0.363241"/>
<feComposite in2="hardAlpha" operator="arithmetic" k2="-1" k3="1"/>
<feColorMatrix type="matrix" values="0 0 0 0 0.0201504 0 0 0 0 0.198372 0 0 0 0 0.194129 0 0 0 0.2 0"/>
<feBlend mode="normal" in2="shape" result="effect1_innerShadow_460_50"/>
</filter>
<filter id="filter8_i_460_50" x="60.093" y="21.9097" width="10.5396" height="11.266" filterUnits="userSpaceOnUse" color-interpolation-filters="sRGB">
<feFlood flood-opacity="0" result="BackgroundImageFix"/>
<feBlend mode="normal" in="SourceGraphic" in2="BackgroundImageFix" result="shape"/>
<feColorMatrix in="SourceAlpha" type="matrix" values="0 0 0 0 0 0 0 0 0 0 0 0 0 0 0 0 0 0 127 0" result="hardAlpha"/>
<feOffset dy="-2.72431"/>
<feGaussianBlur stdDeviation="0.363241"/>
<feComposite in2="hardAlpha" operator="arithmetic" k2="-1" k3="1"/>
<feColorMatrix type="matrix" values="0 0 0 0 0.0201504 0 0 0 0 0.198372 0 0 0 0 0.194129 0 0 0 0.2 0"/>
<feBlend mode="normal" in2="shape" result="effect1_innerShadow_460_50"/>
</filter>
<filter id="filter9_i_460_50" x="29.7764" y="5.90429" width="40.2166" height="40.943" filterUnits="userSpaceOnUse" color-interpolation-filters="sRGB">
<feFlood flood-opacity="0" result="BackgroundImageFix"/>
<feBlend mode="normal" in="SourceGraphic" in2="BackgroundImageFix" result="shape"/>
<feColorMatrix in="SourceAlpha" type="matrix" values="0 0 0 0 0 0 0 0 0 0 0 0 0 0 0 0 0 0 127 0" result="hardAlpha"/>
<feOffset dy="-1.8162"/>
<feGaussianBlur stdDeviation="0.363241"/>
<feComposite in2="hardAlpha" operator="arithmetic" k2="-1" k3="1"/>
<feColorMatrix type="matrix" values="0 0 0 0 0.0689561 0 0 0 0 0.470426 0 0 0 0 0.460868 0 0 0 0.2 0"/>
<feBlend mode="normal" in2="shape" result="effect1_innerShadow_460_50"/>
</filter>
<filter id="filter10_i_460_50" x="53.5544" y="49.946" width="10.0521" height="7.42791" filterUnits="userSpaceOnUse" color-interpolation-filters="sRGB">
<feFlood flood-opacity="0" result="BackgroundImageFix"/>
<feBlend mode="normal" in="SourceGraphic" in2="BackgroundImageFix" result="shape"/>
<feColorMatrix in="SourceAlpha" type="matrix" values="0 0 0 0 0 0 0 0 0 0 0 0 0 0 0 0 0 0 127 0" result="hardAlpha"/>
<feOffset dy="-2.72431"/>
<feGaussianBlur stdDeviation="0.363241"/>
<feComposite in2="hardAlpha" operator="arithmetic" k2="-1" k3="1"/>
<feColorMatrix type="matrix" values="0 0 0 0 0.0201504 0 0 0 0 0.198372 0 0 0 0 0.194129 0 0 0 0.2 0"/>
<feBlend mode="normal" in2="shape" result="effect1_innerShadow_460_50"/>
</filter>
<filter id="filter11_i_460_50" x="24.0325" y="54.3545" width="42.8724" height="17.5392" filterUnits="userSpaceOnUse" color-interpolation-filters="sRGB">
<feFlood flood-opacity="0" result="BackgroundImageFix"/>
<feBlend mode="normal" in="SourceGraphic" in2="BackgroundImageFix" result="shape"/>
<feColorMatrix in="SourceAlpha" type="matrix" values="0 0 0 0 0 0 0 0 0 0 0 0 0 0 0 0 0 0 127 0" result="hardAlpha"/>
<feOffset dy="-1.8162"/>
<feGaussianBlur stdDeviation="0.363241"/>
<feComposite in2="hardAlpha" operator="arithmetic" k2="-1" k3="1"/>
<feColorMatrix type="matrix" values="0 0 0 0 0.0689561 0 0 0 0 0.470426 0 0 0 0 0.460868 0 0 0 0.2 0"/>
<feBlend mode="normal" in2="shape" result="effect1_innerShadow_460_50"/>
</filter>
<clipPath id="clip0_460_50">
<rect width="72" height="72" fill="white" transform="translate(0 0.76709)"/>
</clipPath>
</defs>
</svg>
